<svg xmlns="http://www.w3.org/2000/svg" xmlns:xlink="http://www.w3.org/1999/xlink" version="1.1" id="Layer_1" x="0px" y="0px" width="496.066px" height="496.067px" viewBox="49.607 172.912 496.066 496.067" enable-background="new 49.607 172.912 496.066 496.067" xml:space="preserve">
<g id="post-linkedin">
	<path fill="#707070" d="M496.067,172.912H99.213c-27.283,0-49.606,22.323-49.606,49.607v396.854   c0,27.283,22.323,49.606,49.606,49.606h396.854c27.283,0,49.606-22.323,49.606-49.606V222.519   C545.673,195.234,523.35,172.912,496.067,172.912z M198.427,594.568h-74.41v-223.23h74.41V594.568z M161.222,329.173   c-24.804,0-44.646-19.843-44.646-44.646c0-24.804,19.843-44.646,44.646-44.646c24.803,0,44.646,19.842,44.646,44.646   C205.867,309.33,186.025,329.173,161.222,329.173z M471.263,594.568h-74.409V463.11c0-19.843-17.363-37.205-37.205-37.205   c-19.843,0-37.205,17.362-37.205,37.205v131.458h-74.41v-223.23h74.41v29.764c12.401-19.843,39.685-34.725,62.008-34.725   c47.127,0,86.812,39.685,86.812,86.812V594.568z"/>
</g>
</svg>
